<mxfile host="app.diagrams.net" agent="Mozilla/5.0 (Macintosh; Intel Mac OS X 10_15_7) AppleWebKit/537.36 (KHTML, like Gecko) Chrome/131.0.0.0 Safari/537.36" version="24.9.0">
  <diagram name="Page-1" id="EgT6KDBuFSWelfZ36I4W">
    <mxGraphModel dx="2463" dy="2564" grid="1" gridSize="10" guides="1" tooltips="1" connect="1" arrows="1" fold="1" page="1" pageScale="1" pageWidth="1100" pageHeight="850" math="0" shadow="0">
      <root>
        <mxCell id="0" />
        <mxCell id="1" parent="0" />
        <mxCell id="JOoD4f122zqJWDldt9V0-251" value="" style="endArrow=none;html=1;rounded=0;" edge="1" parent="1">
          <mxGeometry width="50" height="50" relative="1" as="geometry">
            <mxPoint x="600" y="-60" as="sourcePoint" />
            <mxPoint x="600" y="-85" as="targetPoint" />
          </mxGeometry>
        </mxCell>
        <mxCell id="JOoD4f122zqJWDldt9V0-213" value="" style="endArrow=none;html=1;rounded=0;exitX=1;exitY=0.5;exitDx=0;exitDy=0;" edge="1" parent="1">
          <mxGeometry width="50" height="50" relative="1" as="geometry">
            <mxPoint x="183.13" y="-535" as="sourcePoint" />
            <mxPoint x="182.63" y="-503" as="targetPoint" />
          </mxGeometry>
        </mxCell>
        <mxCell id="JOoD4f122zqJWDldt9V0-214" value="" style="endArrow=none;html=1;rounded=0;exitX=1;exitY=0.5;exitDx=0;exitDy=0;" edge="1" parent="1">
          <mxGeometry width="50" height="50" relative="1" as="geometry">
            <mxPoint x="103.13" y="-535" as="sourcePoint" />
            <mxPoint x="102.63" y="-503" as="targetPoint" />
          </mxGeometry>
        </mxCell>
        <mxCell id="JOoD4f122zqJWDldt9V0-212" value="" style="endArrow=none;html=1;rounded=0;exitX=1;exitY=0.5;exitDx=0;exitDy=0;entryX=0.124;entryY=0.011;entryDx=0;entryDy=0;entryPerimeter=0;" edge="1" parent="1" target="JOoD4f122zqJWDldt9V0-198">
          <mxGeometry width="50" height="50" relative="1" as="geometry">
            <mxPoint x="311.13" y="-539" as="sourcePoint" />
            <mxPoint x="310.63" y="-507" as="targetPoint" />
          </mxGeometry>
        </mxCell>
        <mxCell id="JOoD4f122zqJWDldt9V0-211" value="" style="endArrow=none;html=1;rounded=0;entryX=0.909;entryY=0.011;entryDx=0;entryDy=0;entryPerimeter=0;" edge="1" parent="1" target="JOoD4f122zqJWDldt9V0-198">
          <mxGeometry width="50" height="50" relative="1" as="geometry">
            <mxPoint x="408" y="-545" as="sourcePoint" />
            <mxPoint x="365.63" y="-497" as="targetPoint" />
          </mxGeometry>
        </mxCell>
        <mxCell id="JOoD4f122zqJWDldt9V0-210" value="" style="endArrow=none;html=1;rounded=0;exitX=1;exitY=0.5;exitDx=0;exitDy=0;" edge="1" parent="1">
          <mxGeometry width="50" height="50" relative="1" as="geometry">
            <mxPoint x="356.13" y="-539" as="sourcePoint" />
            <mxPoint x="355.63" y="-507" as="targetPoint" />
          </mxGeometry>
        </mxCell>
        <mxCell id="JOoD4f122zqJWDldt9V0-204" value="" style="endArrow=none;html=1;rounded=0;entryX=0;entryY=0.5;entryDx=0;entryDy=0;exitX=1;exitY=0.5;exitDx=0;exitDy=0;" edge="1" parent="1">
          <mxGeometry width="50" height="50" relative="1" as="geometry">
            <mxPoint x="201" y="-477.37" as="sourcePoint" />
            <mxPoint x="306" y="-477.37" as="targetPoint" />
          </mxGeometry>
        </mxCell>
        <mxCell id="JOoD4f122zqJWDldt9V0-202" value="" style="endArrow=none;html=1;rounded=0;entryX=0;entryY=0.5;entryDx=0;entryDy=0;exitX=1;exitY=0.5;exitDx=0;exitDy=0;" edge="1" parent="1">
          <mxGeometry width="50" height="50" relative="1" as="geometry">
            <mxPoint x="404" y="-477.37" as="sourcePoint" />
            <mxPoint x="509" y="-477.37" as="targetPoint" />
          </mxGeometry>
        </mxCell>
        <mxCell id="JOoD4f122zqJWDldt9V0-112" value="" style="endArrow=none;html=1;rounded=0;entryX=0.5;entryY=0;entryDx=0;entryDy=0;" edge="1" parent="1">
          <mxGeometry width="50" height="50" relative="1" as="geometry">
            <mxPoint x="874.62" y="-1433" as="sourcePoint" />
            <mxPoint x="874.62" y="-1393" as="targetPoint" />
          </mxGeometry>
        </mxCell>
        <mxCell id="JOoD4f122zqJWDldt9V0-111" value="" style="endArrow=none;html=1;rounded=0;entryX=0.5;entryY=0;entryDx=0;entryDy=0;" edge="1" parent="1" target="JOoD4f122zqJWDldt9V0-91">
          <mxGeometry width="50" height="50" relative="1" as="geometry">
            <mxPoint x="790" y="-1433" as="sourcePoint" />
            <mxPoint x="760" y="-1373" as="targetPoint" />
          </mxGeometry>
        </mxCell>
        <mxCell id="JOoD4f122zqJWDldt9V0-108" value="" style="endArrow=none;html=1;rounded=0;exitX=0.129;exitY=0.978;exitDx=0;exitDy=0;exitPerimeter=0;entryX=0.5;entryY=0;entryDx=0;entryDy=0;" edge="1" parent="1" source="JOoD4f122zqJWDldt9V0-75" target="JOoD4f122zqJWDldt9V0-92">
          <mxGeometry width="50" height="50" relative="1" as="geometry">
            <mxPoint x="370" y="-1083" as="sourcePoint" />
            <mxPoint x="390" y="-1043" as="targetPoint" />
          </mxGeometry>
        </mxCell>
        <mxCell id="JOoD4f122zqJWDldt9V0-106" value="" style="endArrow=none;html=1;rounded=0;entryX=0.5;entryY=1;entryDx=0;entryDy=0;" edge="1" parent="1" target="JOoD4f122zqJWDldt9V0-83">
          <mxGeometry width="50" height="50" relative="1" as="geometry">
            <mxPoint x="460" y="-1493" as="sourcePoint" />
            <mxPoint x="420" y="-1453" as="targetPoint" />
          </mxGeometry>
        </mxCell>
        <mxCell id="JOoD4f122zqJWDldt9V0-104" value="" style="endArrow=none;html=1;rounded=0;entryX=0.08;entryY=0.052;entryDx=0;entryDy=0;entryPerimeter=0;exitX=1;exitY=0.5;exitDx=0;exitDy=0;" edge="1" parent="1" source="JOoD4f122zqJWDldt9V0-85" target="JOoD4f122zqJWDldt9V0-72">
          <mxGeometry width="50" height="50" relative="1" as="geometry">
            <mxPoint x="370" y="-1403" as="sourcePoint" />
            <mxPoint x="420" y="-1453" as="targetPoint" />
          </mxGeometry>
        </mxCell>
        <mxCell id="JOoD4f122zqJWDldt9V0-105" value="" style="endArrow=none;html=1;rounded=0;exitX=1;exitY=0.5;exitDx=0;exitDy=0;" edge="1" parent="1" source="JOoD4f122zqJWDldt9V0-84">
          <mxGeometry width="50" height="50" relative="1" as="geometry">
            <mxPoint x="370" y="-1403" as="sourcePoint" />
            <mxPoint x="415" y="-1493" as="targetPoint" />
          </mxGeometry>
        </mxCell>
        <mxCell id="JOoD4f122zqJWDldt9V0-103" value="" style="endArrow=none;html=1;rounded=0;entryX=0;entryY=0;entryDx=0;entryDy=0;exitX=0.863;exitY=0.617;exitDx=0;exitDy=0;exitPerimeter=0;" edge="1" parent="1" source="JOoD4f122zqJWDldt9V0-86" target="JOoD4f122zqJWDldt9V0-72">
          <mxGeometry width="50" height="50" relative="1" as="geometry">
            <mxPoint x="370" y="-1455" as="sourcePoint" />
            <mxPoint x="385" y="-1455" as="targetPoint" />
          </mxGeometry>
        </mxCell>
        <mxCell id="JOoD4f122zqJWDldt9V0-81" value="" style="endArrow=none;html=1;rounded=0;entryX=0;entryY=0.5;entryDx=0;entryDy=0;exitX=1;exitY=0.5;exitDx=0;exitDy=0;" edge="1" parent="1">
          <mxGeometry width="50" height="50" relative="1" as="geometry">
            <mxPoint x="680" y="-1465.3200000000002" as="sourcePoint" />
            <mxPoint x="785" y="-1465.3200000000002" as="targetPoint" />
          </mxGeometry>
        </mxCell>
        <mxCell id="JOoD4f122zqJWDldt9V0-1" value="PELICULA" style="rounded=0;whiteSpace=wrap;html=1;" vertex="1" parent="1">
          <mxGeometry x="525" y="1251" width="120" height="60" as="geometry" />
        </mxCell>
        <mxCell id="JOoD4f122zqJWDldt9V0-2" value="DIRECTOR" style="rounded=0;whiteSpace=wrap;html=1;" vertex="1" parent="1">
          <mxGeometry x="865" y="1251" width="120" height="60" as="geometry" />
        </mxCell>
        <mxCell id="JOoD4f122zqJWDldt9V0-3" value="ACTOR" style="rounded=0;whiteSpace=wrap;html=1;" vertex="1" parent="1">
          <mxGeometry x="103" y="1251" width="120" height="60" as="geometry" />
        </mxCell>
        <mxCell id="JOoD4f122zqJWDldt9V0-6" value="" style="endArrow=none;html=1;rounded=0;exitX=1;exitY=0.5;exitDx=0;exitDy=0;entryX=0;entryY=0.5;entryDx=0;entryDy=0;" edge="1" parent="1" source="JOoD4f122zqJWDldt9V0-1" target="JOoD4f122zqJWDldt9V0-4">
          <mxGeometry width="50" height="50" relative="1" as="geometry">
            <mxPoint x="505" y="1511" as="sourcePoint" />
            <mxPoint x="555" y="1461" as="targetPoint" />
          </mxGeometry>
        </mxCell>
        <mxCell id="JOoD4f122zqJWDldt9V0-7" value="" style="endArrow=none;html=1;rounded=0;exitX=1;exitY=0.5;exitDx=0;exitDy=0;entryX=0;entryY=0.5;entryDx=0;entryDy=0;" edge="1" parent="1" source="JOoD4f122zqJWDldt9V0-4">
          <mxGeometry width="50" height="50" relative="1" as="geometry">
            <mxPoint x="645" y="1280.29" as="sourcePoint" />
            <mxPoint x="865" y="1280.29" as="targetPoint" />
          </mxGeometry>
        </mxCell>
        <mxCell id="JOoD4f122zqJWDldt9V0-14" value="" style="ellipse;whiteSpace=wrap;html=1;aspect=fixed;fillColor=#000000;" vertex="1" parent="1">
          <mxGeometry x="810" y="570" width="30" height="30" as="geometry" />
        </mxCell>
        <mxCell id="JOoD4f122zqJWDldt9V0-15" value="" style="ellipse;whiteSpace=wrap;html=1;aspect=fixed;" vertex="1" parent="1">
          <mxGeometry x="960" y="570" width="30" height="30" as="geometry" />
        </mxCell>
        <mxCell id="JOoD4f122zqJWDldt9V0-12" value="" style="ellipse;whiteSpace=wrap;html=1;aspect=fixed;" vertex="1" parent="1">
          <mxGeometry x="890" y="570" width="30" height="30" as="geometry" />
        </mxCell>
        <mxCell id="JOoD4f122zqJWDldt9V0-13" value="" style="shape=or;whiteSpace=wrap;html=1;fillColor=#000000;" vertex="1" parent="1">
          <mxGeometry x="905" y="570" width="15" height="30" as="geometry" />
        </mxCell>
        <mxCell id="JOoD4f122zqJWDldt9V0-17" value="" style="ellipse;whiteSpace=wrap;html=1;aspect=fixed;fillColor=#000000;" vertex="1" parent="1">
          <mxGeometry x="103" y="1171" width="30" height="30" as="geometry" />
        </mxCell>
        <mxCell id="JOoD4f122zqJWDldt9V0-18" value="" style="ellipse;whiteSpace=wrap;html=1;aspect=fixed;" vertex="1" parent="1">
          <mxGeometry x="515" y="1361" width="30" height="30" as="geometry" />
        </mxCell>
        <mxCell id="JOoD4f122zqJWDldt9V0-19" value="" style="ellipse;whiteSpace=wrap;html=1;aspect=fixed;" vertex="1" parent="1">
          <mxGeometry x="555" y="1361" width="30" height="30" as="geometry" />
        </mxCell>
        <mxCell id="JOoD4f122zqJWDldt9V0-21" value="" style="ellipse;whiteSpace=wrap;html=1;aspect=fixed;fillColor=#000000;" vertex="1" parent="1">
          <mxGeometry x="865" y="1181" width="30" height="30" as="geometry" />
        </mxCell>
        <mxCell id="JOoD4f122zqJWDldt9V0-22" value="" style="ellipse;whiteSpace=wrap;html=1;aspect=fixed;" vertex="1" parent="1">
          <mxGeometry x="915" y="1181" width="30" height="30" as="geometry" />
        </mxCell>
        <mxCell id="JOoD4f122zqJWDldt9V0-23" value="" style="ellipse;whiteSpace=wrap;html=1;aspect=fixed;" vertex="1" parent="1">
          <mxGeometry x="965" y="1181" width="30" height="30" as="geometry" />
        </mxCell>
        <mxCell id="JOoD4f122zqJWDldt9V0-24" value="" style="ellipse;whiteSpace=wrap;html=1;aspect=fixed;" vertex="1" parent="1">
          <mxGeometry x="555" y="1171" width="30" height="30" as="geometry" />
        </mxCell>
        <mxCell id="JOoD4f122zqJWDldt9V0-25" value="" style="ellipse;whiteSpace=wrap;html=1;aspect=fixed;" vertex="1" parent="1">
          <mxGeometry x="595" y="1171" width="30" height="30" as="geometry" />
        </mxCell>
        <mxCell id="JOoD4f122zqJWDldt9V0-30" value="" style="ellipse;whiteSpace=wrap;html=1;aspect=fixed;" vertex="1" parent="1">
          <mxGeometry x="595" y="1361" width="30" height="30" as="geometry" />
        </mxCell>
        <mxCell id="JOoD4f122zqJWDldt9V0-32" value="" style="ellipse;whiteSpace=wrap;html=1;aspect=fixed;" vertex="1" parent="1">
          <mxGeometry x="635" y="1171" width="30" height="30" as="geometry" />
        </mxCell>
        <mxCell id="JOoD4f122zqJWDldt9V0-33" value="" style="ellipse;whiteSpace=wrap;html=1;aspect=fixed;" vertex="1" parent="1">
          <mxGeometry x="515" y="1171" width="30" height="30" as="geometry" />
        </mxCell>
        <mxCell id="JOoD4f122zqJWDldt9V0-40" value="" style="endArrow=none;html=1;rounded=0;exitX=1;exitY=0.5;exitDx=0;exitDy=0;entryX=0;entryY=0.5;entryDx=0;entryDy=0;endFill=0;" edge="1" parent="1" target="JOoD4f122zqJWDldt9V0-4">
          <mxGeometry width="50" height="50" relative="1" as="geometry">
            <mxPoint x="645" y="1280.29" as="sourcePoint" />
            <mxPoint x="865" y="1280.29" as="targetPoint" />
          </mxGeometry>
        </mxCell>
        <mxCell id="JOoD4f122zqJWDldt9V0-47" value="" style="edgeStyle=orthogonalEdgeStyle;rounded=0;orthogonalLoop=1;jettySize=auto;html=1;endArrow=none;endFill=0;" edge="1" parent="1" source="JOoD4f122zqJWDldt9V0-4" target="JOoD4f122zqJWDldt9V0-1">
          <mxGeometry relative="1" as="geometry" />
        </mxCell>
        <mxCell id="JOoD4f122zqJWDldt9V0-4" value="dirigir" style="rhombus;whiteSpace=wrap;html=1;" vertex="1" parent="1">
          <mxGeometry x="715" y="1241" width="80" height="80" as="geometry" />
        </mxCell>
        <mxCell id="JOoD4f122zqJWDldt9V0-41" value="" style="verticalLabelPosition=bottom;verticalAlign=top;html=1;shape=mxgraph.basic.frame;dx=10;whiteSpace=wrap;" vertex="1" parent="1">
          <mxGeometry x="315" y="1251" width="120" height="60" as="geometry" />
        </mxCell>
        <mxCell id="JOoD4f122zqJWDldt9V0-46" value="reparto" style="text;html=1;align=center;verticalAlign=middle;resizable=0;points=[];autosize=1;strokeColor=none;fillColor=none;" vertex="1" parent="1">
          <mxGeometry x="345" y="1266" width="60" height="30" as="geometry" />
        </mxCell>
        <mxCell id="JOoD4f122zqJWDldt9V0-48" value="" style="edgeStyle=orthogonalEdgeStyle;rounded=0;orthogonalLoop=1;jettySize=auto;html=1;endArrow=none;endFill=0;exitX=0;exitY=0.5;exitDx=0;exitDy=0;entryX=1;entryY=0.5;entryDx=0;entryDy=0;entryPerimeter=0;" edge="1" parent="1" source="JOoD4f122zqJWDldt9V0-1" target="JOoD4f122zqJWDldt9V0-41">
          <mxGeometry relative="1" as="geometry">
            <mxPoint x="715" y="1291" as="sourcePoint" />
            <mxPoint x="655" y="1291" as="targetPoint" />
          </mxGeometry>
        </mxCell>
        <mxCell id="JOoD4f122zqJWDldt9V0-52" style="edgeStyle=orthogonalEdgeStyle;rounded=0;orthogonalLoop=1;jettySize=auto;html=1;entryX=0;entryY=0.5;entryDx=0;entryDy=0;entryPerimeter=0;exitX=1;exitY=0.5;exitDx=0;exitDy=0;endArrow=none;endFill=0;" edge="1" parent="1" source="JOoD4f122zqJWDldt9V0-3" target="JOoD4f122zqJWDldt9V0-41">
          <mxGeometry relative="1" as="geometry" />
        </mxCell>
        <mxCell id="JOoD4f122zqJWDldt9V0-54" value="" style="ellipse;whiteSpace=wrap;html=1;aspect=fixed;" vertex="1" parent="1">
          <mxGeometry x="635" y="1361" width="30" height="30" as="geometry" />
        </mxCell>
        <mxCell id="JOoD4f122zqJWDldt9V0-55" value="" style="verticalLabelPosition=bottom;verticalAlign=top;html=1;shape=mxgraph.basic.frame;dx=10;whiteSpace=wrap;" vertex="1" parent="1">
          <mxGeometry x="315" y="1011" width="120" height="60" as="geometry" />
        </mxCell>
        <mxCell id="JOoD4f122zqJWDldt9V0-56" value="idioma pelicula" style="text;html=1;align=center;verticalAlign=middle;resizable=0;points=[];autosize=1;strokeColor=none;fillColor=none;" vertex="1" parent="1">
          <mxGeometry x="325" y="1027" width="100" height="30" as="geometry" />
        </mxCell>
        <mxCell id="JOoD4f122zqJWDldt9V0-57" value="IDIOMA" style="rounded=0;whiteSpace=wrap;html=1;" vertex="1" parent="1">
          <mxGeometry x="103" y="1011" width="120" height="60" as="geometry" />
        </mxCell>
        <mxCell id="JOoD4f122zqJWDldt9V0-58" value="" style="ellipse;whiteSpace=wrap;html=1;aspect=fixed;fillColor=#000000;" vertex="1" parent="1">
          <mxGeometry x="129" y="921" width="30" height="30" as="geometry" />
        </mxCell>
        <mxCell id="JOoD4f122zqJWDldt9V0-59" value="" style="ellipse;whiteSpace=wrap;html=1;aspect=fixed;" vertex="1" parent="1">
          <mxGeometry x="170" y="921" width="30" height="30" as="geometry" />
        </mxCell>
        <mxCell id="JOoD4f122zqJWDldt9V0-63" value="" style="ellipse;whiteSpace=wrap;html=1;aspect=fixed;" vertex="1" parent="1">
          <mxGeometry x="148" y="1171" width="30" height="30" as="geometry" />
        </mxCell>
        <mxCell id="JOoD4f122zqJWDldt9V0-64" value="" style="ellipse;whiteSpace=wrap;html=1;aspect=fixed;" vertex="1" parent="1">
          <mxGeometry x="193" y="1171" width="30" height="30" as="geometry" />
        </mxCell>
        <mxCell id="JOoD4f122zqJWDldt9V0-65" value="" style="ellipse;whiteSpace=wrap;html=1;aspect=fixed;" vertex="1" parent="1">
          <mxGeometry x="148" y="1361" width="30" height="30" as="geometry" />
        </mxCell>
        <mxCell id="JOoD4f122zqJWDldt9V0-66" value="" style="ellipse;whiteSpace=wrap;html=1;aspect=fixed;" vertex="1" parent="1">
          <mxGeometry x="315" y="1171" width="30" height="30" as="geometry" />
        </mxCell>
        <mxCell id="JOoD4f122zqJWDldt9V0-67" value="" style="ellipse;whiteSpace=wrap;html=1;aspect=fixed;" vertex="1" parent="1">
          <mxGeometry x="360" y="1171" width="30" height="30" as="geometry" />
        </mxCell>
        <mxCell id="JOoD4f122zqJWDldt9V0-68" value="" style="ellipse;whiteSpace=wrap;html=1;aspect=fixed;" vertex="1" parent="1">
          <mxGeometry x="405" y="1171" width="30" height="30" as="geometry" />
        </mxCell>
        <mxCell id="JOoD4f122zqJWDldt9V0-69" value="" style="ellipse;whiteSpace=wrap;html=1;aspect=fixed;fillColor=#000000;" vertex="1" parent="1">
          <mxGeometry x="360" y="1361" width="30" height="30" as="geometry" />
        </mxCell>
        <mxCell id="JOoD4f122zqJWDldt9V0-72" value="PELICULA" style="rounded=0;whiteSpace=wrap;html=1;" vertex="1" parent="1">
          <mxGeometry x="375" y="-1495" width="120" height="60" as="geometry" />
        </mxCell>
        <mxCell id="JOoD4f122zqJWDldt9V0-73" value="dirigir" style="rhombus;whiteSpace=wrap;html=1;" vertex="1" parent="1">
          <mxGeometry x="600" y="-1505" width="80" height="80" as="geometry" />
        </mxCell>
        <mxCell id="JOoD4f122zqJWDldt9V0-74" value="DIRECTOR" style="rounded=0;whiteSpace=wrap;html=1;" vertex="1" parent="1">
          <mxGeometry x="775" y="-1490" width="120" height="60" as="geometry" />
        </mxCell>
        <mxCell id="JOoD4f122zqJWDldt9V0-75" value="ACTOR" style="rounded=0;whiteSpace=wrap;html=1;" vertex="1" parent="1">
          <mxGeometry x="375" y="-1239" width="120" height="60" as="geometry" />
        </mxCell>
        <mxCell id="JOoD4f122zqJWDldt9V0-77" value="" style="endArrow=none;html=1;rounded=0;entryX=0.5;entryY=1;entryDx=0;entryDy=0;exitX=0.5;exitY=0;exitDx=0;exitDy=0;" edge="1" parent="1" source="JOoD4f122zqJWDldt9V0-75" target="JOoD4f122zqJWDldt9V0-76">
          <mxGeometry width="50" height="50" relative="1" as="geometry">
            <mxPoint x="435" y="-1143" as="sourcePoint" />
            <mxPoint x="470" y="-963" as="targetPoint" />
          </mxGeometry>
        </mxCell>
        <mxCell id="JOoD4f122zqJWDldt9V0-79" value="" style="endArrow=none;html=1;rounded=0;exitX=0.5;exitY=0;exitDx=0;exitDy=0;" edge="1" parent="1" source="JOoD4f122zqJWDldt9V0-76" target="JOoD4f122zqJWDldt9V0-72">
          <mxGeometry width="50" height="50" relative="1" as="geometry">
            <mxPoint x="434.68" y="-1323" as="sourcePoint" />
            <mxPoint x="435" y="-1433" as="targetPoint" />
          </mxGeometry>
        </mxCell>
        <mxCell id="JOoD4f122zqJWDldt9V0-80" value="" style="endArrow=none;html=1;rounded=0;entryX=0;entryY=0.5;entryDx=0;entryDy=0;exitX=1;exitY=0.5;exitDx=0;exitDy=0;" edge="1" parent="1" source="JOoD4f122zqJWDldt9V0-72" target="JOoD4f122zqJWDldt9V0-73">
          <mxGeometry width="50" height="50" relative="1" as="geometry">
            <mxPoint x="450" y="-1293" as="sourcePoint" />
            <mxPoint x="500" y="-1343" as="targetPoint" />
          </mxGeometry>
        </mxCell>
        <mxCell id="JOoD4f122zqJWDldt9V0-82" value="" style="ellipse;whiteSpace=wrap;html=1;aspect=fixed;" vertex="1" parent="1">
          <mxGeometry x="860" y="-1393" width="30" height="30" as="geometry" />
        </mxCell>
        <mxCell id="JOoD4f122zqJWDldt9V0-83" value="" style="ellipse;whiteSpace=wrap;html=1;aspect=fixed;" vertex="1" parent="1">
          <mxGeometry x="445" y="-1555" width="30" height="30" as="geometry" />
        </mxCell>
        <mxCell id="JOoD4f122zqJWDldt9V0-84" value="" style="ellipse;whiteSpace=wrap;html=1;aspect=fixed;direction=south;" vertex="1" parent="1">
          <mxGeometry x="400" y="-1555" width="30" height="30" as="geometry" />
        </mxCell>
        <mxCell id="JOoD4f122zqJWDldt9V0-85" value="" style="ellipse;whiteSpace=wrap;html=1;aspect=fixed;direction=south;" vertex="1" parent="1">
          <mxGeometry x="360" y="-1555" width="30" height="30" as="geometry" />
        </mxCell>
        <mxCell id="JOoD4f122zqJWDldt9V0-86" value="" style="ellipse;whiteSpace=wrap;html=1;aspect=fixed;" vertex="1" parent="1">
          <mxGeometry x="330" y="-1525" width="30" height="30" as="geometry" />
        </mxCell>
        <mxCell id="JOoD4f122zqJWDldt9V0-87" value="" style="ellipse;whiteSpace=wrap;html=1;aspect=fixed;" vertex="1" parent="1">
          <mxGeometry x="330" y="-1480" width="30" height="30" as="geometry" />
        </mxCell>
        <mxCell id="JOoD4f122zqJWDldt9V0-88" value="" style="ellipse;whiteSpace=wrap;html=1;aspect=fixed;" vertex="1" parent="1">
          <mxGeometry x="330" y="-1435" width="30" height="30" as="geometry" />
        </mxCell>
        <mxCell id="JOoD4f122zqJWDldt9V0-90" value="" style="ellipse;whiteSpace=wrap;html=1;aspect=fixed;fillColor=#000000;" vertex="1" parent="1">
          <mxGeometry x="820" y="-1555" width="30" height="30" as="geometry" />
        </mxCell>
        <mxCell id="JOoD4f122zqJWDldt9V0-91" value="" style="ellipse;whiteSpace=wrap;html=1;aspect=fixed;" vertex="1" parent="1">
          <mxGeometry x="775" y="-1393" width="30" height="30" as="geometry" />
        </mxCell>
        <mxCell id="JOoD4f122zqJWDldt9V0-92" value="" style="ellipse;whiteSpace=wrap;html=1;aspect=fixed;fillColor=#000000;" vertex="1" parent="1">
          <mxGeometry x="375" y="-1139" width="30" height="30" as="geometry" />
        </mxCell>
        <mxCell id="JOoD4f122zqJWDldt9V0-93" value="" style="ellipse;whiteSpace=wrap;html=1;aspect=fixed;" vertex="1" parent="1">
          <mxGeometry x="465" y="-1139" width="30" height="30" as="geometry" />
        </mxCell>
        <mxCell id="JOoD4f122zqJWDldt9V0-95" value="" style="ellipse;whiteSpace=wrap;html=1;aspect=fixed;" vertex="1" parent="1">
          <mxGeometry x="525" y="-1338" width="30" height="30" as="geometry" />
        </mxCell>
        <mxCell id="JOoD4f122zqJWDldt9V0-96" value="" style="ellipse;whiteSpace=wrap;html=1;aspect=fixed;fillColor=#000000;" vertex="1" parent="1">
          <mxGeometry x="490" y="-1555" width="30" height="30" as="geometry" />
        </mxCell>
        <mxCell id="JOoD4f122zqJWDldt9V0-98" value="" style="endArrow=none;html=1;rounded=0;entryX=1;entryY=0.5;entryDx=0;entryDy=0;exitX=0;exitY=0.5;exitDx=0;exitDy=0;" edge="1" parent="1" source="JOoD4f122zqJWDldt9V0-95" target="JOoD4f122zqJWDldt9V0-76">
          <mxGeometry width="50" height="50" relative="1" as="geometry">
            <mxPoint x="410" y="-1223" as="sourcePoint" />
            <mxPoint x="460" y="-1273" as="targetPoint" />
          </mxGeometry>
        </mxCell>
        <mxCell id="JOoD4f122zqJWDldt9V0-99" value="" style="endArrow=none;html=1;rounded=0;entryX=0;entryY=1;entryDx=0;entryDy=0;exitX=1;exitY=0.5;exitDx=0;exitDy=0;" edge="1" parent="1" source="JOoD4f122zqJWDldt9V0-88" target="JOoD4f122zqJWDldt9V0-72">
          <mxGeometry width="50" height="50" relative="1" as="geometry">
            <mxPoint x="410" y="-1223" as="sourcePoint" />
            <mxPoint x="460" y="-1273" as="targetPoint" />
          </mxGeometry>
        </mxCell>
        <mxCell id="JOoD4f122zqJWDldt9V0-102" value="" style="endArrow=none;html=1;rounded=0;entryX=0;entryY=0.5;entryDx=0;entryDy=0;exitX=1;exitY=0.5;exitDx=0;exitDy=0;" edge="1" parent="1" source="JOoD4f122zqJWDldt9V0-87" target="JOoD4f122zqJWDldt9V0-72">
          <mxGeometry width="50" height="50" relative="1" as="geometry">
            <mxPoint x="410" y="-1223" as="sourcePoint" />
            <mxPoint x="460" y="-1273" as="targetPoint" />
          </mxGeometry>
        </mxCell>
        <mxCell id="JOoD4f122zqJWDldt9V0-107" value="" style="endArrow=none;html=1;rounded=0;entryX=0.5;entryY=1;entryDx=0;entryDy=0;exitX=1;exitY=0;exitDx=0;exitDy=0;" edge="1" parent="1" source="JOoD4f122zqJWDldt9V0-72" target="JOoD4f122zqJWDldt9V0-96">
          <mxGeometry width="50" height="50" relative="1" as="geometry">
            <mxPoint x="370" y="-1403" as="sourcePoint" />
            <mxPoint x="420" y="-1453" as="targetPoint" />
          </mxGeometry>
        </mxCell>
        <mxCell id="JOoD4f122zqJWDldt9V0-109" value="" style="endArrow=none;html=1;rounded=0;entryX=0.881;entryY=0.996;entryDx=0;entryDy=0;entryPerimeter=0;" edge="1" parent="1" source="JOoD4f122zqJWDldt9V0-93" target="JOoD4f122zqJWDldt9V0-75">
          <mxGeometry width="50" height="50" relative="1" as="geometry">
            <mxPoint x="370" y="-1083" as="sourcePoint" />
            <mxPoint x="420" y="-1133" as="targetPoint" />
          </mxGeometry>
        </mxCell>
        <mxCell id="JOoD4f122zqJWDldt9V0-110" value="" style="endArrow=none;html=1;rounded=0;entryX=0.5;entryY=0;entryDx=0;entryDy=0;exitX=0.5;exitY=1;exitDx=0;exitDy=0;" edge="1" parent="1" source="JOoD4f122zqJWDldt9V0-90" target="JOoD4f122zqJWDldt9V0-74">
          <mxGeometry width="50" height="50" relative="1" as="geometry">
            <mxPoint x="570" y="-1313" as="sourcePoint" />
            <mxPoint x="620" y="-1363" as="targetPoint" />
          </mxGeometry>
        </mxCell>
        <mxCell id="JOoD4f122zqJWDldt9V0-113" value="TituloPelicula" style="text;html=1;align=center;verticalAlign=middle;whiteSpace=wrap;rounded=0;rotation=-90;" vertex="1" parent="1">
          <mxGeometry x="445" y="-1613" width="120" height="30" as="geometry" />
        </mxCell>
        <mxCell id="JOoD4f122zqJWDldt9V0-114" value="AñoPelicula" style="text;html=1;align=center;verticalAlign=middle;whiteSpace=wrap;rounded=0;rotation=-90;" vertex="1" parent="1">
          <mxGeometry x="400" y="-1613" width="120" height="30" as="geometry" />
        </mxCell>
        <mxCell id="JOoD4f122zqJWDldt9V0-115" value="NacionalidadPelicula" style="text;html=1;align=center;verticalAlign=middle;whiteSpace=wrap;rounded=0;rotation=-90;" vertex="1" parent="1">
          <mxGeometry x="355" y="-1633" width="120" height="30" as="geometry" />
        </mxCell>
        <mxCell id="JOoD4f122zqJWDldt9V0-116" value="IdiomaPelicula" style="text;html=1;align=center;verticalAlign=middle;whiteSpace=wrap;rounded=0;rotation=-90;" vertex="1" parent="1">
          <mxGeometry x="310" y="-1613" width="120" height="30" as="geometry" />
        </mxCell>
        <mxCell id="JOoD4f122zqJWDldt9V0-117" value="ColorPelicula" style="text;html=1;align=right;verticalAlign=middle;whiteSpace=wrap;rounded=0;rotation=0;" vertex="1" parent="1">
          <mxGeometry x="210" y="-1525" width="120" height="30" as="geometry" />
        </mxCell>
        <mxCell id="JOoD4f122zqJWDldt9V0-118" value="ResumenPelicula" style="text;html=1;align=right;verticalAlign=middle;whiteSpace=wrap;rounded=0;rotation=0;" vertex="1" parent="1">
          <mxGeometry x="210" y="-1480" width="120" height="30" as="geometry" />
        </mxCell>
        <mxCell id="JOoD4f122zqJWDldt9V0-119" value="ObservacionesPelicula" style="text;html=1;align=right;verticalAlign=middle;whiteSpace=wrap;rounded=0;rotation=0;" vertex="1" parent="1">
          <mxGeometry x="188" y="-1435" width="140" height="30" as="geometry" />
        </mxCell>
        <mxCell id="JOoD4f122zqJWDldt9V0-120" value="Personaje" style="text;html=1;align=left;verticalAlign=middle;whiteSpace=wrap;rounded=0;rotation=0;" vertex="1" parent="1">
          <mxGeometry x="560" y="-1338" width="120" height="30" as="geometry" />
        </mxCell>
        <mxCell id="JOoD4f122zqJWDldt9V0-122" value="(1, n)" style="text;html=1;align=center;verticalAlign=middle;whiteSpace=wrap;rounded=0;" vertex="1" parent="1">
          <mxGeometry x="726" y="-1490" width="60" height="30" as="geometry" />
        </mxCell>
        <mxCell id="JOoD4f122zqJWDldt9V0-123" value="(1, n)" style="text;html=1;align=center;verticalAlign=middle;whiteSpace=wrap;rounded=0;" vertex="1" parent="1">
          <mxGeometry x="486" y="-1490" width="60" height="30" as="geometry" />
        </mxCell>
        <mxCell id="JOoD4f122zqJWDldt9V0-124" value="(1, n)" style="text;html=1;align=center;verticalAlign=middle;whiteSpace=wrap;rounded=0;" vertex="1" parent="1">
          <mxGeometry x="426" y="-1435" width="60" height="30" as="geometry" />
        </mxCell>
        <mxCell id="JOoD4f122zqJWDldt9V0-125" value="(1, n)" style="text;html=1;align=center;verticalAlign=middle;whiteSpace=wrap;rounded=0;" vertex="1" parent="1">
          <mxGeometry x="425" y="-1268" width="60" height="30" as="geometry" />
        </mxCell>
        <mxCell id="JOoD4f122zqJWDldt9V0-126" value="N:1" style="text;html=1;align=center;verticalAlign=middle;whiteSpace=wrap;rounded=0;" vertex="1" parent="1">
          <mxGeometry x="610" y="-1425" width="60" height="30" as="geometry" />
        </mxCell>
        <mxCell id="JOoD4f122zqJWDldt9V0-127" value="N:M" style="text;html=1;align=center;verticalAlign=middle;whiteSpace=wrap;rounded=0;" vertex="1" parent="1">
          <mxGeometry x="340" y="-1338" width="60" height="30" as="geometry" />
        </mxCell>
        <mxCell id="JOoD4f122zqJWDldt9V0-130" value="NacionalidadActor" style="text;html=1;align=left;verticalAlign=middle;whiteSpace=wrap;rounded=0;rotation=90;" vertex="1" parent="1">
          <mxGeometry x="421" y="-1060" width="120" height="30" as="geometry" />
        </mxCell>
        <mxCell id="JOoD4f122zqJWDldt9V0-144" value="" style="endArrow=none;html=1;rounded=0;exitX=0.5;exitY=0;exitDx=0;exitDy=0;" edge="1" parent="1" target="JOoD4f122zqJWDldt9V0-76">
          <mxGeometry width="50" height="50" relative="1" as="geometry">
            <mxPoint x="434.68" y="-1323" as="sourcePoint" />
            <mxPoint x="435" y="-1435" as="targetPoint" />
          </mxGeometry>
        </mxCell>
        <mxCell id="JOoD4f122zqJWDldt9V0-76" value="reparto" style="rhombus;whiteSpace=wrap;html=1;" vertex="1" parent="1">
          <mxGeometry x="395" y="-1363" width="80" height="80" as="geometry" />
        </mxCell>
        <mxCell id="JOoD4f122zqJWDldt9V0-145" value="NombreActor" style="text;html=1;align=left;verticalAlign=middle;whiteSpace=wrap;rounded=0;rotation=90;" vertex="1" parent="1">
          <mxGeometry x="330" y="-1060" width="120" height="30" as="geometry" />
        </mxCell>
        <mxCell id="JOoD4f122zqJWDldt9V0-146" value="" style="endArrow=none;html=1;rounded=0;entryX=0.5;entryY=0;entryDx=0;entryDy=0;" edge="1" parent="1">
          <mxGeometry width="50" height="50" relative="1" as="geometry">
            <mxPoint x="992.58" y="-445" as="sourcePoint" />
            <mxPoint x="992.58" y="-405" as="targetPoint" />
          </mxGeometry>
        </mxCell>
        <mxCell id="JOoD4f122zqJWDldt9V0-147" value="" style="endArrow=none;html=1;rounded=0;entryX=0.5;entryY=0;entryDx=0;entryDy=0;" edge="1" parent="1" target="JOoD4f122zqJWDldt9V0-169">
          <mxGeometry width="50" height="50" relative="1" as="geometry">
            <mxPoint x="922.5" y="-445" as="sourcePoint" />
            <mxPoint x="892.5" y="-385" as="targetPoint" />
          </mxGeometry>
        </mxCell>
        <mxCell id="JOoD4f122zqJWDldt9V0-149" value="" style="endArrow=none;html=1;rounded=0;entryX=0.5;entryY=1;entryDx=0;entryDy=0;" edge="1" parent="1" target="JOoD4f122zqJWDldt9V0-162">
          <mxGeometry width="50" height="50" relative="1" as="geometry">
            <mxPoint x="592.5" y="-505" as="sourcePoint" />
            <mxPoint x="552.5" y="-465" as="targetPoint" />
          </mxGeometry>
        </mxCell>
        <mxCell id="JOoD4f122zqJWDldt9V0-150" value="" style="endArrow=none;html=1;rounded=0;entryX=0.08;entryY=0.052;entryDx=0;entryDy=0;entryPerimeter=0;exitX=1;exitY=0.5;exitDx=0;exitDy=0;" edge="1" parent="1" target="JOoD4f122zqJWDldt9V0-154">
          <mxGeometry width="50" height="50" relative="1" as="geometry">
            <mxPoint x="507.5" y="-537" as="sourcePoint" />
            <mxPoint x="552.5" y="-465" as="targetPoint" />
          </mxGeometry>
        </mxCell>
        <mxCell id="JOoD4f122zqJWDldt9V0-151" value="" style="endArrow=none;html=1;rounded=0;exitX=1;exitY=0.5;exitDx=0;exitDy=0;" edge="1" parent="1" source="JOoD4f122zqJWDldt9V0-163">
          <mxGeometry width="50" height="50" relative="1" as="geometry">
            <mxPoint x="502.5" y="-415" as="sourcePoint" />
            <mxPoint x="547.5" y="-505" as="targetPoint" />
          </mxGeometry>
        </mxCell>
        <mxCell id="JOoD4f122zqJWDldt9V0-152" value="" style="endArrow=none;html=1;rounded=0;exitX=0.5;exitY=0;exitDx=0;exitDy=0;" edge="1" parent="1" source="JOoD4f122zqJWDldt9V0-165">
          <mxGeometry width="50" height="50" relative="1" as="geometry">
            <mxPoint x="502.5" y="-467" as="sourcePoint" />
            <mxPoint x="518" y="-445" as="targetPoint" />
          </mxGeometry>
        </mxCell>
        <mxCell id="JOoD4f122zqJWDldt9V0-153" value="" style="endArrow=none;html=1;rounded=0;entryX=0;entryY=0.5;entryDx=0;entryDy=0;exitX=1;exitY=0.5;exitDx=0;exitDy=0;" edge="1" parent="1">
          <mxGeometry width="50" height="50" relative="1" as="geometry">
            <mxPoint x="812.5" y="-477.32000000000016" as="sourcePoint" />
            <mxPoint x="917.5" y="-477.32000000000016" as="targetPoint" />
          </mxGeometry>
        </mxCell>
        <mxCell id="JOoD4f122zqJWDldt9V0-154" value="PELICULA" style="rounded=0;whiteSpace=wrap;html=1;" vertex="1" parent="1">
          <mxGeometry x="507.5" y="-507" width="120" height="60" as="geometry" />
        </mxCell>
        <mxCell id="JOoD4f122zqJWDldt9V0-155" value="dirigir" style="rhombus;whiteSpace=wrap;html=1;" vertex="1" parent="1">
          <mxGeometry x="732.5" y="-517" width="80" height="80" as="geometry" />
        </mxCell>
        <mxCell id="JOoD4f122zqJWDldt9V0-156" value="DIRECTOR" style="rounded=0;whiteSpace=wrap;html=1;" vertex="1" parent="1">
          <mxGeometry x="907.5" y="-502" width="120" height="60" as="geometry" />
        </mxCell>
        <mxCell id="JOoD4f122zqJWDldt9V0-157" value="ACTOR" style="rounded=0;whiteSpace=wrap;html=1;" vertex="1" parent="1">
          <mxGeometry x="82" y="-507" width="120" height="60" as="geometry" />
        </mxCell>
        <mxCell id="JOoD4f122zqJWDldt9V0-159" value="" style="endArrow=none;html=1;rounded=0;" edge="1" parent="1" target="JOoD4f122zqJWDldt9V0-154">
          <mxGeometry width="50" height="50" relative="1" as="geometry">
            <mxPoint x="568" y="-395" as="sourcePoint" />
            <mxPoint x="567.5" y="-445" as="targetPoint" />
          </mxGeometry>
        </mxCell>
        <mxCell id="JOoD4f122zqJWDldt9V0-160" value="" style="endArrow=none;html=1;rounded=0;entryX=0;entryY=0.5;entryDx=0;entryDy=0;exitX=1;exitY=0.5;exitDx=0;exitDy=0;" edge="1" parent="1" source="JOoD4f122zqJWDldt9V0-154" target="JOoD4f122zqJWDldt9V0-155">
          <mxGeometry width="50" height="50" relative="1" as="geometry">
            <mxPoint x="582.5" y="-305" as="sourcePoint" />
            <mxPoint x="632.5" y="-355" as="targetPoint" />
          </mxGeometry>
        </mxCell>
        <mxCell id="JOoD4f122zqJWDldt9V0-161" value="" style="ellipse;whiteSpace=wrap;html=1;aspect=fixed;" vertex="1" parent="1">
          <mxGeometry x="978" y="-407" width="30" height="30" as="geometry" />
        </mxCell>
        <mxCell id="JOoD4f122zqJWDldt9V0-162" value="" style="ellipse;whiteSpace=wrap;html=1;aspect=fixed;" vertex="1" parent="1">
          <mxGeometry x="577.5" y="-567" width="30" height="30" as="geometry" />
        </mxCell>
        <mxCell id="JOoD4f122zqJWDldt9V0-163" value="" style="ellipse;whiteSpace=wrap;html=1;aspect=fixed;direction=south;" vertex="1" parent="1">
          <mxGeometry x="532.5" y="-567" width="30" height="30" as="geometry" />
        </mxCell>
        <mxCell id="JOoD4f122zqJWDldt9V0-165" value="" style="ellipse;whiteSpace=wrap;html=1;aspect=fixed;" vertex="1" parent="1">
          <mxGeometry x="502.5" y="-395" width="30" height="30" as="geometry" />
        </mxCell>
        <mxCell id="JOoD4f122zqJWDldt9V0-166" value="" style="ellipse;whiteSpace=wrap;html=1;aspect=fixed;" vertex="1" parent="1">
          <mxGeometry x="554" y="-395" width="30" height="30" as="geometry" />
        </mxCell>
        <mxCell id="JOoD4f122zqJWDldt9V0-167" value="" style="ellipse;whiteSpace=wrap;html=1;aspect=fixed;" vertex="1" parent="1">
          <mxGeometry x="599" y="-395" width="30" height="30" as="geometry" />
        </mxCell>
        <mxCell id="JOoD4f122zqJWDldt9V0-168" value="" style="ellipse;whiteSpace=wrap;html=1;aspect=fixed;fillColor=#000000;" vertex="1" parent="1">
          <mxGeometry x="952.5" y="-567" width="30" height="30" as="geometry" />
        </mxCell>
        <mxCell id="JOoD4f122zqJWDldt9V0-169" value="" style="ellipse;whiteSpace=wrap;html=1;aspect=fixed;" vertex="1" parent="1">
          <mxGeometry x="907.5" y="-405" width="30" height="30" as="geometry" />
        </mxCell>
        <mxCell id="JOoD4f122zqJWDldt9V0-170" value="" style="ellipse;whiteSpace=wrap;html=1;aspect=fixed;fillColor=#000000;" vertex="1" parent="1">
          <mxGeometry x="88" y="-565" width="30" height="30" as="geometry" />
        </mxCell>
        <mxCell id="JOoD4f122zqJWDldt9V0-175" value="" style="endArrow=none;html=1;rounded=0;entryX=0.896;entryY=1.011;entryDx=0;entryDy=0;entryPerimeter=0;exitX=0.5;exitY=0;exitDx=0;exitDy=0;" edge="1" parent="1" source="JOoD4f122zqJWDldt9V0-167" target="JOoD4f122zqJWDldt9V0-154">
          <mxGeometry width="50" height="50" relative="1" as="geometry">
            <mxPoint x="618" y="-395" as="sourcePoint" />
            <mxPoint x="592.5" y="-285" as="targetPoint" />
          </mxGeometry>
        </mxCell>
        <mxCell id="JOoD4f122zqJWDldt9V0-177" value="" style="endArrow=none;html=1;rounded=0;entryX=0.5;entryY=1;entryDx=0;entryDy=0;exitX=1;exitY=0;exitDx=0;exitDy=0;" edge="1" parent="1" source="JOoD4f122zqJWDldt9V0-154">
          <mxGeometry width="50" height="50" relative="1" as="geometry">
            <mxPoint x="502.5" y="-415" as="sourcePoint" />
            <mxPoint x="637.5" y="-537" as="targetPoint" />
          </mxGeometry>
        </mxCell>
        <mxCell id="JOoD4f122zqJWDldt9V0-179" value="" style="endArrow=none;html=1;rounded=0;entryX=0.5;entryY=0;entryDx=0;entryDy=0;exitX=0.5;exitY=1;exitDx=0;exitDy=0;" edge="1" parent="1" source="JOoD4f122zqJWDldt9V0-168" target="JOoD4f122zqJWDldt9V0-156">
          <mxGeometry width="50" height="50" relative="1" as="geometry">
            <mxPoint x="702.5" y="-325" as="sourcePoint" />
            <mxPoint x="752.5" y="-375" as="targetPoint" />
          </mxGeometry>
        </mxCell>
        <mxCell id="JOoD4f122zqJWDldt9V0-180" value="IdPelicula" style="text;html=1;align=left;verticalAlign=middle;whiteSpace=wrap;rounded=0;rotation=-90;" vertex="1" parent="1">
          <mxGeometry x="449" y="-645" width="120" height="30" as="geometry" />
        </mxCell>
        <mxCell id="JOoD4f122zqJWDldt9V0-181" value="AñoPelicula" style="text;html=1;align=left;verticalAlign=middle;whiteSpace=wrap;rounded=0;rotation=-90;" vertex="1" parent="1">
          <mxGeometry x="532.5" y="-645" width="120" height="30" as="geometry" />
        </mxCell>
        <mxCell id="JOoD4f122zqJWDldt9V0-183" value="IdiomaPelicula" style="text;html=1;align=center;verticalAlign=middle;whiteSpace=wrap;rounded=0;rotation=-90;" vertex="1" parent="1">
          <mxGeometry x="299.5" y="-840" width="120" height="30" as="geometry" />
        </mxCell>
        <mxCell id="JOoD4f122zqJWDldt9V0-184" value="ColorPelicula" style="text;html=1;align=left;verticalAlign=middle;whiteSpace=wrap;rounded=0;rotation=90;" vertex="1" parent="1">
          <mxGeometry x="459" y="-316" width="120" height="30" as="geometry" />
        </mxCell>
        <mxCell id="JOoD4f122zqJWDldt9V0-185" value="ResumenPelicula" style="text;html=1;align=left;verticalAlign=middle;whiteSpace=wrap;rounded=0;rotation=90;" vertex="1" parent="1">
          <mxGeometry x="509" y="-316" width="120" height="30" as="geometry" />
        </mxCell>
        <mxCell id="JOoD4f122zqJWDldt9V0-186" value="ObservacionesPelicula" style="text;html=1;align=right;verticalAlign=middle;whiteSpace=wrap;rounded=0;rotation=90;" vertex="1" parent="1">
          <mxGeometry x="547.5" y="-320" width="140" height="30" as="geometry" />
        </mxCell>
        <mxCell id="JOoD4f122zqJWDldt9V0-188" value="(1, n)" style="text;html=1;align=center;verticalAlign=middle;whiteSpace=wrap;rounded=0;" vertex="1" parent="1">
          <mxGeometry x="858.5" y="-502" width="60" height="30" as="geometry" />
        </mxCell>
        <mxCell id="JOoD4f122zqJWDldt9V0-189" value="(1, n)" style="text;html=1;align=center;verticalAlign=middle;whiteSpace=wrap;rounded=0;" vertex="1" parent="1">
          <mxGeometry x="618.5" y="-502" width="60" height="30" as="geometry" />
        </mxCell>
        <mxCell id="JOoD4f122zqJWDldt9V0-190" value="(1, n)" style="text;html=1;align=center;verticalAlign=middle;whiteSpace=wrap;rounded=0;" vertex="1" parent="1">
          <mxGeometry x="392" y="-501" width="60" height="30" as="geometry" />
        </mxCell>
        <mxCell id="JOoD4f122zqJWDldt9V0-191" value="(1,1)" style="text;html=1;align=center;verticalAlign=middle;whiteSpace=wrap;rounded=0;" vertex="1" parent="1">
          <mxGeometry x="464" y="-501" width="60" height="30" as="geometry" />
        </mxCell>
        <mxCell id="JOoD4f122zqJWDldt9V0-192" value="N:1" style="text;html=1;align=center;verticalAlign=middle;whiteSpace=wrap;rounded=0;" vertex="1" parent="1">
          <mxGeometry x="742.5" y="-437" width="60" height="30" as="geometry" />
        </mxCell>
        <mxCell id="JOoD4f122zqJWDldt9V0-194" value="NacionalidadActor" style="text;html=1;align=left;verticalAlign=middle;whiteSpace=wrap;rounded=0;rotation=-90;" vertex="1" parent="1">
          <mxGeometry x="-230" y="-505" width="120" height="30" as="geometry" />
        </mxCell>
        <mxCell id="JOoD4f122zqJWDldt9V0-197" value="NombreActor" style="text;html=1;align=left;verticalAlign=middle;whiteSpace=wrap;rounded=0;rotation=-90;" vertex="1" parent="1">
          <mxGeometry x="123" y="-645" width="120" height="30" as="geometry" />
        </mxCell>
        <mxCell id="JOoD4f122zqJWDldt9V0-198" value="" style="verticalLabelPosition=bottom;verticalAlign=top;html=1;shape=mxgraph.basic.frame;dx=10;whiteSpace=wrap;" vertex="1" parent="1">
          <mxGeometry x="306" y="-507" width="100" height="60" as="geometry" />
        </mxCell>
        <mxCell id="JOoD4f122zqJWDldt9V0-199" value="" style="ellipse;whiteSpace=wrap;html=1;aspect=fixed;" vertex="1" parent="1">
          <mxGeometry x="168" y="-565" width="30" height="30" as="geometry" />
        </mxCell>
        <mxCell id="JOoD4f122zqJWDldt9V0-200" value="reparto" style="text;html=1;align=center;verticalAlign=middle;resizable=0;points=[];autosize=1;strokeColor=none;fillColor=none;" vertex="1" parent="1">
          <mxGeometry x="326" y="-492" width="60" height="30" as="geometry" />
        </mxCell>
        <mxCell id="JOoD4f122zqJWDldt9V0-205" value="(1,1)" style="text;html=1;align=center;verticalAlign=middle;whiteSpace=wrap;rounded=0;" vertex="1" parent="1">
          <mxGeometry x="188" y="-501" width="60" height="30" as="geometry" />
        </mxCell>
        <mxCell id="JOoD4f122zqJWDldt9V0-206" value="(1, n)" style="text;html=1;align=center;verticalAlign=middle;whiteSpace=wrap;rounded=0;" vertex="1" parent="1">
          <mxGeometry x="261" y="-501" width="60" height="30" as="geometry" />
        </mxCell>
        <mxCell id="JOoD4f122zqJWDldt9V0-207" value="" style="ellipse;whiteSpace=wrap;html=1;aspect=fixed;" vertex="1" parent="1">
          <mxGeometry x="392" y="-567" width="30" height="30" as="geometry" />
        </mxCell>
        <mxCell id="JOoD4f122zqJWDldt9V0-208" value="" style="ellipse;whiteSpace=wrap;html=1;aspect=fixed;" vertex="1" parent="1">
          <mxGeometry x="341" y="-567" width="30" height="30" as="geometry" />
        </mxCell>
        <mxCell id="JOoD4f122zqJWDldt9V0-209" value="" style="ellipse;whiteSpace=wrap;html=1;aspect=fixed;" vertex="1" parent="1">
          <mxGeometry x="296" y="-565" width="30" height="30" as="geometry" />
        </mxCell>
        <mxCell id="JOoD4f122zqJWDldt9V0-215" value="IdPeliculaFK" style="text;html=1;align=left;verticalAlign=middle;whiteSpace=wrap;rounded=0;rotation=-90;" vertex="1" parent="1">
          <mxGeometry x="348" y="-645" width="120" height="30" as="geometry" />
        </mxCell>
        <mxCell id="JOoD4f122zqJWDldt9V0-219" value="" style="ellipse;whiteSpace=wrap;html=1;aspect=fixed;fillColor=#000000;" vertex="1" parent="1">
          <mxGeometry x="494" y="-565" width="30" height="30" as="geometry" />
        </mxCell>
        <mxCell id="JOoD4f122zqJWDldt9V0-221" value="" style="ellipse;whiteSpace=wrap;html=1;aspect=fixed;direction=south;" vertex="1" parent="1">
          <mxGeometry x="624" y="-565" width="30" height="30" as="geometry" />
        </mxCell>
        <mxCell id="JOoD4f122zqJWDldt9V0-222" value="TituloPelicula" style="text;html=1;align=left;verticalAlign=middle;whiteSpace=wrap;rounded=0;rotation=-90;" vertex="1" parent="1">
          <mxGeometry x="487.5" y="-645" width="120" height="30" as="geometry" />
        </mxCell>
        <mxCell id="JOoD4f122zqJWDldt9V0-223" value="IdDirectorPeliculaFK" style="text;html=1;align=left;verticalAlign=middle;whiteSpace=wrap;rounded=0;rotation=-90;" vertex="1" parent="1">
          <mxGeometry x="579" y="-645" width="120" height="30" as="geometry" />
        </mxCell>
        <mxCell id="JOoD4f122zqJWDldt9V0-224" value="" style="ellipse;whiteSpace=wrap;html=1;aspect=fixed;fillColor=#000000;" vertex="1" parent="1">
          <mxGeometry x="341" y="-395" width="30" height="30" as="geometry" />
        </mxCell>
        <mxCell id="JOoD4f122zqJWDldt9V0-226" value="" style="endArrow=none;html=1;rounded=0;exitX=1;exitY=0.5;exitDx=0;exitDy=0;entryX=0.5;entryY=0;entryDx=0;entryDy=0;" edge="1" parent="1" target="JOoD4f122zqJWDldt9V0-224">
          <mxGeometry width="50" height="50" relative="1" as="geometry">
            <mxPoint x="356.13" y="-447" as="sourcePoint" />
            <mxPoint x="355.63" y="-415" as="targetPoint" />
          </mxGeometry>
        </mxCell>
        <mxCell id="JOoD4f122zqJWDldt9V0-228" value="IdReparto" style="text;html=1;align=left;verticalAlign=middle;whiteSpace=wrap;rounded=0;rotation=90;" vertex="1" parent="1">
          <mxGeometry x="296" y="-316" width="120" height="30" as="geometry" />
        </mxCell>
        <mxCell id="JOoD4f122zqJWDldt9V0-229" value="IdActor" style="text;html=1;align=left;verticalAlign=middle;whiteSpace=wrap;rounded=0;rotation=-90;" vertex="1" parent="1">
          <mxGeometry x="43" y="-645" width="120" height="30" as="geometry" />
        </mxCell>
        <mxCell id="JOoD4f122zqJWDldt9V0-230" value="" style="ellipse;whiteSpace=wrap;html=1;aspect=fixed;" vertex="1" parent="1">
          <mxGeometry x="127" y="-395" width="30" height="30" as="geometry" />
        </mxCell>
        <mxCell id="JOoD4f122zqJWDldt9V0-234" value="" style="endArrow=none;html=1;rounded=0;exitX=1;exitY=0.5;exitDx=0;exitDy=0;entryX=0.5;entryY=0;entryDx=0;entryDy=0;" edge="1" parent="1">
          <mxGeometry width="50" height="50" relative="1" as="geometry">
            <mxPoint x="141.76" y="-447" as="sourcePoint" />
            <mxPoint x="141.63" y="-395" as="targetPoint" />
          </mxGeometry>
        </mxCell>
        <mxCell id="JOoD4f122zqJWDldt9V0-235" value="IdNacionalidadFK" style="text;html=1;align=left;verticalAlign=middle;whiteSpace=wrap;rounded=0;rotation=90;" vertex="1" parent="1">
          <mxGeometry x="89" y="-323" width="106" height="30" as="geometry" />
        </mxCell>
        <mxCell id="JOoD4f122zqJWDldt9V0-236" value="IdActorFK" style="text;html=1;align=left;verticalAlign=middle;whiteSpace=wrap;rounded=0;rotation=-90;" vertex="1" parent="1">
          <mxGeometry x="296" y="-645" width="120" height="30" as="geometry" />
        </mxCell>
        <mxCell id="JOoD4f122zqJWDldt9V0-237" value="Personaje" style="text;html=1;align=left;verticalAlign=middle;whiteSpace=wrap;rounded=0;rotation=-90;" vertex="1" parent="1">
          <mxGeometry x="251" y="-645" width="120" height="30" as="geometry" />
        </mxCell>
        <mxCell id="JOoD4f122zqJWDldt9V0-238" value="Nacionalidad" style="rounded=0;whiteSpace=wrap;html=1;" vertex="1" parent="1">
          <mxGeometry x="507.5" y="-145" width="120" height="60" as="geometry" />
        </mxCell>
        <mxCell id="JOoD4f122zqJWDldt9V0-239" value="" style="endArrow=none;html=1;rounded=0;exitX=0.75;exitY=0;exitDx=0;exitDy=0;" edge="1" parent="1" source="JOoD4f122zqJWDldt9V0-238">
          <mxGeometry width="50" height="50" relative="1" as="geometry">
            <mxPoint x="518" y="-465" as="sourcePoint" />
            <mxPoint x="598" y="-205" as="targetPoint" />
          </mxGeometry>
        </mxCell>
        <mxCell id="JOoD4f122zqJWDldt9V0-240" value="" style="endArrow=none;html=1;rounded=0;" edge="1" parent="1">
          <mxGeometry width="50" height="50" relative="1" as="geometry">
            <mxPoint x="598" y="-205" as="sourcePoint" />
            <mxPoint x="998" y="-205" as="targetPoint" />
          </mxGeometry>
        </mxCell>
        <mxCell id="JOoD4f122zqJWDldt9V0-241" value="" style="endArrow=none;html=1;rounded=0;entryX=0.757;entryY=0.433;entryDx=0;entryDy=0;entryPerimeter=0;" edge="1" parent="1" target="JOoD4f122zqJWDldt9V0-247">
          <mxGeometry width="50" height="50" relative="1" as="geometry">
            <mxPoint x="998" y="-205" as="sourcePoint" />
            <mxPoint x="998" y="-320" as="targetPoint" />
          </mxGeometry>
        </mxCell>
        <mxCell id="JOoD4f122zqJWDldt9V0-242" value="" style="endArrow=none;html=1;rounded=0;exitX=0.75;exitY=0;exitDx=0;exitDy=0;" edge="1" parent="1">
          <mxGeometry width="50" height="50" relative="1" as="geometry">
            <mxPoint x="516.89" y="-145" as="sourcePoint" />
            <mxPoint x="516.89" y="-205" as="targetPoint" />
          </mxGeometry>
        </mxCell>
        <mxCell id="JOoD4f122zqJWDldt9V0-243" value="" style="endArrow=none;html=1;rounded=0;" edge="1" parent="1">
          <mxGeometry width="50" height="50" relative="1" as="geometry">
            <mxPoint x="138" y="-205" as="sourcePoint" />
            <mxPoint x="518" y="-205" as="targetPoint" />
          </mxGeometry>
        </mxCell>
        <mxCell id="JOoD4f122zqJWDldt9V0-244" value="" style="endArrow=none;html=1;rounded=0;entryX=1.012;entryY=0.619;entryDx=0;entryDy=0;entryPerimeter=0;" edge="1" parent="1" target="JOoD4f122zqJWDldt9V0-235">
          <mxGeometry width="50" height="50" relative="1" as="geometry">
            <mxPoint x="138" y="-205" as="sourcePoint" />
            <mxPoint x="138" y="-235" as="targetPoint" />
          </mxGeometry>
        </mxCell>
        <mxCell id="JOoD4f122zqJWDldt9V0-245" value="IdDirectorPelicula" style="text;html=1;align=left;verticalAlign=middle;whiteSpace=wrap;rounded=0;rotation=-90;" vertex="1" parent="1">
          <mxGeometry x="907.5" y="-645" width="120" height="30" as="geometry" />
        </mxCell>
        <mxCell id="JOoD4f122zqJWDldt9V0-246" value="Nombre" style="text;html=1;align=left;verticalAlign=middle;whiteSpace=wrap;rounded=0;rotation=90;" vertex="1" parent="1">
          <mxGeometry x="852.5" y="-316" width="140" height="30" as="geometry" />
        </mxCell>
        <mxCell id="JOoD4f122zqJWDldt9V0-247" value="IdNacionalidadFK" style="text;html=1;align=left;verticalAlign=middle;whiteSpace=wrap;rounded=0;rotation=90;" vertex="1" parent="1">
          <mxGeometry x="926" y="-316" width="140" height="30" as="geometry" />
        </mxCell>
        <mxCell id="JOoD4f122zqJWDldt9V0-248" value="" style="ellipse;whiteSpace=wrap;html=1;aspect=fixed;fillColor=#000000;" vertex="1" parent="1">
          <mxGeometry x="525" y="-60" width="30" height="30" as="geometry" />
        </mxCell>
        <mxCell id="JOoD4f122zqJWDldt9V0-249" value="" style="ellipse;whiteSpace=wrap;html=1;aspect=fixed;" vertex="1" parent="1">
          <mxGeometry x="584" y="-60" width="30" height="30" as="geometry" />
        </mxCell>
        <mxCell id="JOoD4f122zqJWDldt9V0-250" value="" style="endArrow=none;html=1;rounded=0;" edge="1" parent="1">
          <mxGeometry width="50" height="50" relative="1" as="geometry">
            <mxPoint x="540" y="-60" as="sourcePoint" />
            <mxPoint x="539.55" y="-85" as="targetPoint" />
          </mxGeometry>
        </mxCell>
        <mxCell id="JOoD4f122zqJWDldt9V0-252" value="IdNacionalidad" style="text;html=1;align=right;verticalAlign=middle;whiteSpace=wrap;rounded=0;rotation=0;" vertex="1" parent="1">
          <mxGeometry x="404" y="-60" width="120" height="30" as="geometry" />
        </mxCell>
        <mxCell id="JOoD4f122zqJWDldt9V0-253" value="PaisOrigem" style="text;html=1;align=left;verticalAlign=middle;whiteSpace=wrap;rounded=0;rotation=0;" vertex="1" parent="1">
          <mxGeometry x="616" y="-60" width="120" height="30" as="geometry" />
        </mxCell>
      </root>
    </mxGraphModel>
  </diagram>
</mxfile>
